<mxfile host="app.diagrams.net" agent="Mozilla/5.0 (Windows NT 10.0; Win64; x64) AppleWebKit/537.36 (KHTML, like Gecko) Chrome/127.0.0.0 Safari/537.36" version="24.7.6">
  <diagram name="第 1 页" id="OdmnOPn_utRvMR3Yf3He">
    <mxGraphModel dx="2261" dy="737" grid="1" gridSize="10" guides="1" tooltips="1" connect="1" arrows="1" fold="1" page="1" pageScale="1" pageWidth="827" pageHeight="1169" math="0" shadow="0">
      <root>
        <mxCell id="0" />
        <mxCell id="1" parent="0" />
        <mxCell id="Xc_hmQjyCIkOFI-XtvyU-5" style="edgeStyle=orthogonalEdgeStyle;rounded=0;orthogonalLoop=1;jettySize=auto;html=1;exitX=0.5;exitY=1;exitDx=0;exitDy=0;entryX=0.5;entryY=0;entryDx=0;entryDy=0;" edge="1" parent="1" source="Xc_hmQjyCIkOFI-XtvyU-1" target="Xc_hmQjyCIkOFI-XtvyU-3">
          <mxGeometry relative="1" as="geometry" />
        </mxCell>
        <mxCell id="Xc_hmQjyCIkOFI-XtvyU-6" value="生成临时id" style="edgeLabel;html=1;align=center;verticalAlign=middle;resizable=0;points=[];" vertex="1" connectable="0" parent="Xc_hmQjyCIkOFI-XtvyU-5">
          <mxGeometry x="0.0333" y="-5" relative="1" as="geometry">
            <mxPoint as="offset" />
          </mxGeometry>
        </mxCell>
        <mxCell id="Xc_hmQjyCIkOFI-XtvyU-1" value="校验" style="rhombus;whiteSpace=wrap;html=1;" vertex="1" parent="1">
          <mxGeometry x="300" y="170" width="120" height="50" as="geometry" />
        </mxCell>
        <mxCell id="Xc_hmQjyCIkOFI-XtvyU-4" style="edgeStyle=orthogonalEdgeStyle;rounded=0;orthogonalLoop=1;jettySize=auto;html=1;exitX=0.5;exitY=1;exitDx=0;exitDy=0;" edge="1" parent="1" source="Xc_hmQjyCIkOFI-XtvyU-2" target="Xc_hmQjyCIkOFI-XtvyU-1">
          <mxGeometry relative="1" as="geometry" />
        </mxCell>
        <mxCell id="Xc_hmQjyCIkOFI-XtvyU-2" value="申请付款" style="rounded=1;whiteSpace=wrap;html=1;" vertex="1" parent="1">
          <mxGeometry x="300" y="40" width="120" height="60" as="geometry" />
        </mxCell>
        <mxCell id="Xc_hmQjyCIkOFI-XtvyU-8" style="edgeStyle=orthogonalEdgeStyle;rounded=0;orthogonalLoop=1;jettySize=auto;html=1;entryX=0.5;entryY=0;entryDx=0;entryDy=0;" edge="1" parent="1" source="Xc_hmQjyCIkOFI-XtvyU-3">
          <mxGeometry relative="1" as="geometry">
            <mxPoint x="360" y="400" as="targetPoint" />
          </mxGeometry>
        </mxCell>
        <mxCell id="Xc_hmQjyCIkOFI-XtvyU-3" value="前端跳转详情页" style="rounded=1;whiteSpace=wrap;html=1;" vertex="1" parent="1">
          <mxGeometry x="300" y="280" width="120" height="60" as="geometry" />
        </mxCell>
        <mxCell id="Xc_hmQjyCIkOFI-XtvyU-10" value="通过校验&lt;div&gt;&lt;br&gt;&lt;/div&gt;" style="text;html=1;align=center;verticalAlign=middle;resizable=0;points=[];autosize=1;strokeColor=none;fillColor=none;" vertex="1" parent="1">
          <mxGeometry x="345" y="353" width="70" height="40" as="geometry" />
        </mxCell>
        <mxCell id="Xc_hmQjyCIkOFI-XtvyU-18" style="edgeStyle=orthogonalEdgeStyle;rounded=0;orthogonalLoop=1;jettySize=auto;html=1;" edge="1" parent="1" source="Xc_hmQjyCIkOFI-XtvyU-11" target="Xc_hmQjyCIkOFI-XtvyU-12">
          <mxGeometry relative="1" as="geometry" />
        </mxCell>
        <mxCell id="Xc_hmQjyCIkOFI-XtvyU-11" value="产品部审核" style="rounded=1;whiteSpace=wrap;html=1;" vertex="1" parent="1">
          <mxGeometry x="300" y="400" width="120" height="60" as="geometry" />
        </mxCell>
        <mxCell id="Xc_hmQjyCIkOFI-XtvyU-19" style="edgeStyle=orthogonalEdgeStyle;rounded=0;orthogonalLoop=1;jettySize=auto;html=1;entryX=0.5;entryY=0;entryDx=0;entryDy=0;" edge="1" parent="1" source="Xc_hmQjyCIkOFI-XtvyU-12" target="Xc_hmQjyCIkOFI-XtvyU-13">
          <mxGeometry relative="1" as="geometry" />
        </mxCell>
        <mxCell id="Xc_hmQjyCIkOFI-XtvyU-46" style="edgeStyle=orthogonalEdgeStyle;rounded=0;orthogonalLoop=1;jettySize=auto;html=1;entryX=0;entryY=0.5;entryDx=0;entryDy=0;" edge="1" parent="1" source="Xc_hmQjyCIkOFI-XtvyU-12" target="Xc_hmQjyCIkOFI-XtvyU-11">
          <mxGeometry relative="1" as="geometry">
            <Array as="points">
              <mxPoint x="280" y="610" />
              <mxPoint x="280" y="430" />
            </Array>
          </mxGeometry>
        </mxCell>
        <mxCell id="Xc_hmQjyCIkOFI-XtvyU-59" style="edgeStyle=orthogonalEdgeStyle;rounded=0;orthogonalLoop=1;jettySize=auto;html=1;" edge="1" parent="1" source="Xc_hmQjyCIkOFI-XtvyU-12" target="Xc_hmQjyCIkOFI-XtvyU-58">
          <mxGeometry relative="1" as="geometry" />
        </mxCell>
        <mxCell id="Xc_hmQjyCIkOFI-XtvyU-12" value="市场部审核" style="rounded=1;whiteSpace=wrap;html=1;" vertex="1" parent="1">
          <mxGeometry x="300" y="585" width="120" height="60" as="geometry" />
        </mxCell>
        <mxCell id="Xc_hmQjyCIkOFI-XtvyU-20" style="edgeStyle=orthogonalEdgeStyle;rounded=0;orthogonalLoop=1;jettySize=auto;html=1;entryX=0.5;entryY=0;entryDx=0;entryDy=0;" edge="1" parent="1" source="Xc_hmQjyCIkOFI-XtvyU-13" target="Xc_hmQjyCIkOFI-XtvyU-14">
          <mxGeometry relative="1" as="geometry" />
        </mxCell>
        <mxCell id="Xc_hmQjyCIkOFI-XtvyU-60" style="edgeStyle=orthogonalEdgeStyle;rounded=0;orthogonalLoop=1;jettySize=auto;html=1;entryX=0.5;entryY=1;entryDx=0;entryDy=0;exitX=-0.008;exitY=0.9;exitDx=0;exitDy=0;exitPerimeter=0;" edge="1" parent="1" source="Xc_hmQjyCIkOFI-XtvyU-13" target="Xc_hmQjyCIkOFI-XtvyU-58">
          <mxGeometry relative="1" as="geometry">
            <mxPoint x="290" y="800" as="sourcePoint" />
            <mxPoint x="-20" y="790" as="targetPoint" />
          </mxGeometry>
        </mxCell>
        <mxCell id="Xc_hmQjyCIkOFI-XtvyU-13" value="市场部付款确认" style="rounded=1;whiteSpace=wrap;html=1;" vertex="1" parent="1">
          <mxGeometry x="300" y="750" width="120" height="60" as="geometry" />
        </mxCell>
        <mxCell id="Xc_hmQjyCIkOFI-XtvyU-21" value="" style="edgeStyle=orthogonalEdgeStyle;rounded=0;orthogonalLoop=1;jettySize=auto;html=1;" edge="1" parent="1" source="Xc_hmQjyCIkOFI-XtvyU-14" target="Xc_hmQjyCIkOFI-XtvyU-17">
          <mxGeometry relative="1" as="geometry" />
        </mxCell>
        <mxCell id="Xc_hmQjyCIkOFI-XtvyU-51" style="edgeStyle=orthogonalEdgeStyle;rounded=0;orthogonalLoop=1;jettySize=auto;html=1;entryX=0;entryY=0.5;entryDx=0;entryDy=0;" edge="1" parent="1" source="Xc_hmQjyCIkOFI-XtvyU-52" target="Xc_hmQjyCIkOFI-XtvyU-13">
          <mxGeometry relative="1" as="geometry">
            <Array as="points">
              <mxPoint x="280" y="780" />
            </Array>
          </mxGeometry>
        </mxCell>
        <mxCell id="Xc_hmQjyCIkOFI-XtvyU-61" style="edgeStyle=orthogonalEdgeStyle;rounded=0;orthogonalLoop=1;jettySize=auto;html=1;entryX=0.5;entryY=1;entryDx=0;entryDy=0;" edge="1" parent="1" target="Xc_hmQjyCIkOFI-XtvyU-58">
          <mxGeometry relative="1" as="geometry">
            <mxPoint x="300" y="960" as="sourcePoint" />
            <mxPoint x="-40" y="740" as="targetPoint" />
          </mxGeometry>
        </mxCell>
        <mxCell id="Xc_hmQjyCIkOFI-XtvyU-14" value="收款反馈" style="rounded=1;whiteSpace=wrap;html=1;" vertex="1" parent="1">
          <mxGeometry x="300" y="920" width="120" height="60" as="geometry" />
        </mxCell>
        <mxCell id="Xc_hmQjyCIkOFI-XtvyU-15" value="节点 0付款信息确认 1付款申请&amp;nbsp; 2付款申请产品部审核&lt;div&gt;&amp;nbsp;3付款申请市场部审核 4付款申请市场部付款确认 5收款反馈 6合作伙伴终止流程&lt;/div&gt;" style="text;html=1;align=center;verticalAlign=middle;resizable=0;points=[];autosize=1;strokeColor=none;fillColor=none;" vertex="1" parent="1">
          <mxGeometry x="-470" y="353" width="450" height="40" as="geometry" />
        </mxCell>
        <mxCell id="Xc_hmQjyCIkOFI-XtvyU-53" style="edgeStyle=orthogonalEdgeStyle;rounded=0;orthogonalLoop=1;jettySize=auto;html=1;entryX=0;entryY=0.5;entryDx=0;entryDy=0;" edge="1" parent="1" source="Xc_hmQjyCIkOFI-XtvyU-17" target="Xc_hmQjyCIkOFI-XtvyU-14">
          <mxGeometry relative="1" as="geometry">
            <Array as="points">
              <mxPoint x="280" y="1070" />
              <mxPoint x="280" y="950" />
            </Array>
          </mxGeometry>
        </mxCell>
        <mxCell id="Xc_hmQjyCIkOFI-XtvyU-17" value="已付款" style="rounded=1;whiteSpace=wrap;html=1;" vertex="1" parent="1">
          <mxGeometry x="300" y="1040" width="120" height="60" as="geometry" />
        </mxCell>
        <mxCell id="Xc_hmQjyCIkOFI-XtvyU-22" value="通过审核&lt;div&gt;&lt;br&gt;&lt;/div&gt;" style="text;html=1;align=center;verticalAlign=middle;resizable=0;points=[];autosize=1;strokeColor=none;fillColor=none;" vertex="1" parent="1">
          <mxGeometry x="350" y="500" width="70" height="40" as="geometry" />
        </mxCell>
        <mxCell id="Xc_hmQjyCIkOFI-XtvyU-48" style="edgeStyle=orthogonalEdgeStyle;rounded=0;orthogonalLoop=1;jettySize=auto;html=1;entryX=-0.008;entryY=0.617;entryDx=0;entryDy=0;entryPerimeter=0;" edge="1" parent="1" source="Xc_hmQjyCIkOFI-XtvyU-50" target="Xc_hmQjyCIkOFI-XtvyU-12">
          <mxGeometry relative="1" as="geometry">
            <Array as="points">
              <mxPoint x="280" y="622" />
            </Array>
          </mxGeometry>
        </mxCell>
        <mxCell id="Xc_hmQjyCIkOFI-XtvyU-49" value="不通过审核&lt;div&gt;&lt;br&gt;&lt;/div&gt;" style="text;html=1;align=center;verticalAlign=middle;resizable=0;points=[];autosize=1;strokeColor=none;fillColor=none;" vertex="1" parent="1">
          <mxGeometry x="205" y="500" width="80" height="40" as="geometry" />
        </mxCell>
        <mxCell id="Xc_hmQjyCIkOFI-XtvyU-54" value="不通过审核&lt;div&gt;&lt;br&gt;&lt;/div&gt;" style="text;html=1;align=center;verticalAlign=middle;resizable=0;points=[];autosize=1;strokeColor=none;fillColor=none;" vertex="1" parent="1">
          <mxGeometry x="215" y="1010" width="80" height="40" as="geometry" />
        </mxCell>
        <mxCell id="Xc_hmQjyCIkOFI-XtvyU-55" value="通过审核&lt;div&gt;&lt;br&gt;&lt;/div&gt;" style="text;html=1;align=center;verticalAlign=middle;resizable=0;points=[];autosize=1;strokeColor=none;fillColor=none;" vertex="1" parent="1">
          <mxGeometry x="360" y="680" width="70" height="40" as="geometry" />
        </mxCell>
        <mxCell id="Xc_hmQjyCIkOFI-XtvyU-56" value="通过审核&lt;div&gt;&lt;br&gt;&lt;/div&gt;" style="text;html=1;align=center;verticalAlign=middle;resizable=0;points=[];autosize=1;strokeColor=none;fillColor=none;" vertex="1" parent="1">
          <mxGeometry x="370" y="990" width="70" height="40" as="geometry" />
        </mxCell>
        <mxCell id="Xc_hmQjyCIkOFI-XtvyU-57" value="通过审核&lt;div&gt;&lt;br&gt;&lt;/div&gt;" style="text;html=1;align=center;verticalAlign=middle;resizable=0;points=[];autosize=1;strokeColor=none;fillColor=none;" vertex="1" parent="1">
          <mxGeometry x="360" y="850" width="70" height="40" as="geometry" />
        </mxCell>
        <mxCell id="Xc_hmQjyCIkOFI-XtvyU-58" value="合作伙伴终止流程" style="rounded=1;whiteSpace=wrap;html=1;" vertex="1" parent="1">
          <mxGeometry x="-100" y="670" width="120" height="60" as="geometry" />
        </mxCell>
        <mxCell id="Xc_hmQjyCIkOFI-XtvyU-62" value="不通过审核&lt;div&gt;&lt;br&gt;&lt;/div&gt;" style="text;html=1;align=center;verticalAlign=middle;resizable=0;points=[];autosize=1;strokeColor=none;fillColor=none;" vertex="1" parent="1">
          <mxGeometry x="80" y="590" width="80" height="40" as="geometry" />
        </mxCell>
        <mxCell id="Xc_hmQjyCIkOFI-XtvyU-63" value="不通过审核&lt;div&gt;&lt;br&gt;&lt;/div&gt;" style="text;html=1;align=center;verticalAlign=middle;resizable=0;points=[];autosize=1;strokeColor=none;fillColor=none;" vertex="1" parent="1">
          <mxGeometry x="20" y="770" width="80" height="40" as="geometry" />
        </mxCell>
        <mxCell id="Xc_hmQjyCIkOFI-XtvyU-64" value="不通过审核&lt;div&gt;&lt;br&gt;&lt;/div&gt;" style="text;html=1;align=center;verticalAlign=middle;resizable=0;points=[];autosize=1;strokeColor=none;fillColor=none;" vertex="1" parent="1">
          <mxGeometry x="20" y="930" width="80" height="40" as="geometry" />
        </mxCell>
        <mxCell id="Xc_hmQjyCIkOFI-XtvyU-65" value="" style="edgeStyle=orthogonalEdgeStyle;rounded=0;orthogonalLoop=1;jettySize=auto;html=1;entryX=0;entryY=0.5;entryDx=0;entryDy=0;" edge="1" parent="1" source="Xc_hmQjyCIkOFI-XtvyU-14" target="Xc_hmQjyCIkOFI-XtvyU-52">
          <mxGeometry relative="1" as="geometry">
            <mxPoint x="300" y="940" as="sourcePoint" />
            <mxPoint x="300" y="780" as="targetPoint" />
            <Array as="points">
              <mxPoint x="280" y="940" />
            </Array>
          </mxGeometry>
        </mxCell>
        <mxCell id="Xc_hmQjyCIkOFI-XtvyU-52" value="不通过审核&lt;div&gt;&lt;br&gt;&lt;/div&gt;" style="text;html=1;align=center;verticalAlign=middle;resizable=0;points=[];autosize=1;strokeColor=none;fillColor=none;" vertex="1" parent="1">
          <mxGeometry x="250" y="870" width="80" height="40" as="geometry" />
        </mxCell>
        <mxCell id="Xc_hmQjyCIkOFI-XtvyU-66" value="" style="edgeStyle=orthogonalEdgeStyle;rounded=0;orthogonalLoop=1;jettySize=auto;html=1;entryX=-0.008;entryY=0.617;entryDx=0;entryDy=0;entryPerimeter=0;" edge="1" parent="1" source="Xc_hmQjyCIkOFI-XtvyU-13" target="Xc_hmQjyCIkOFI-XtvyU-50">
          <mxGeometry relative="1" as="geometry">
            <mxPoint x="300" y="760" as="sourcePoint" />
            <mxPoint x="299" y="622" as="targetPoint" />
            <Array as="points">
              <mxPoint x="280" y="760" />
            </Array>
          </mxGeometry>
        </mxCell>
        <mxCell id="Xc_hmQjyCIkOFI-XtvyU-50" value="不通过审核&lt;div&gt;&lt;br&gt;&lt;/div&gt;" style="text;html=1;align=center;verticalAlign=middle;resizable=0;points=[];autosize=1;strokeColor=none;fillColor=none;" vertex="1" parent="1">
          <mxGeometry x="240" y="700" width="80" height="40" as="geometry" />
        </mxCell>
      </root>
    </mxGraphModel>
  </diagram>
</mxfile>
